<?xml version="1.0" standalone="no"?>
<!DOCTYPE svg PUBLIC "-//W3C//DTD SVG 20010904//EN"
 "http://www.w3.org/TR/2001/REC-SVG-20010904/DTD/svg10.dtd">
<svg version="1.0" xmlns="http://www.w3.org/2000/svg"
 width="700.000000pt" height="700.000000pt" viewBox="0 0 700.000000 700.000000"
 preserveAspectRatio="xMidYMid meet">
<metadata>
Created by potrace 1.14, written by Peter Selinger 2001-2017
</metadata>
<g transform="translate(0.000000,700.000000) scale(0.100000,-0.100000)"
fill="#000000" stroke="none">
<path d="M3308 6995 c-2 -1 -41 -5 -88 -9 -118 -8 -231 -23 -360 -47 -30 -6
-68 -13 -85 -15 -16 -3 -62 -14 -101 -24 -39 -10 -81 -21 -95 -23 -33 -7 -319
-101 -361 -120 -18 -8 -49 -21 -68 -28 -80 -31 -392 -192 -486 -251 -709 -444
-1221 -1090 -1479 -1863 -49 -146 -90 -291 -101 -355 -3 -14 -11 -56 -19 -95
-7 -38 -19 -106 -25 -150 -6 -44 -13 -93 -15 -110 -20 -134 -27 -517 -12 -682
13 -149 16 -174 53 -398 21 -127 136 -519 178 -610 8 -16 24 -54 35 -83 27
-67 141 -297 194 -387 120 -208 362 -529 503 -669 46 -45 216 -207 244 -231
110 -97 379 -288 515 -367 124 -71 396 -202 515 -246 242 -90 393 -131 645
-176 218 -39 337 -50 580 -50 172 -1 397 9 428 19 7 2 37 6 67 9 177 17 493
94 715 174 1067 386 1874 1255 2185 2353 17 60 33 119 35 131 3 12 13 65 24
117 25 121 27 138 47 296 18 142 24 523 11 685 -60 743 -371 1470 -868 2031
-56 63 -240 248 -289 289 -14 12 -38 34 -55 49 -105 95 -363 278 -524 371
-285 165 -711 331 -986 385 -172 34 -270 50 -359 60 -32 4 -73 9 -90 11 -40 5
-503 13 -508 9z"/>
</g>
</svg>
